Coordinates
version=1
nRows=8
nColumns=40
inDegrees=yes

Units are S.I. units (second, meters, Newtons, ...)
Angles are in degrees.

endheader
time	pelvis_tilt	pelvis_list	pelvis_rotation	pelvis_tx	pelvis_ty	pelvis_tz	hip_flexion_r	hip_adduction_r	hip_rotation_r	knee_angle_r	knee_angle_r_beta	ankle_angle_r	subtalar_angle_r	mtp_angle_r	hip_flexion_l	hip_adduction_l	hip_rotation_l	knee_angle_l	knee_angle_l_beta	ankle_angle_l	subtalar_angle_l	mtp_angle_l	lumbar_extension	lumbar_bending	lumbar_rotation	arm_flex_r	arm_add_r	arm_rot_r	elbow_flex_r	pro_sup_r	wrist_flex_r	wrist_dev_r	arm_flex_l	arm_add_l	arm_rot_l	elbow_flex_l	pro_sup_l	wrist_flex_l	wrist_dev_l
     43.82900000	     -2.94679890	     -2.73142908	      0.15216523	      1.06917330	      0.93389785	      0.39305891	     34.52617809	     -8.92110472	     -7.79570734	     56.63321448	     56.63321448	     -1.30272952	    -12.91057279	      0.47769464	      8.46280552	     -3.31021766	    -14.80293813	     16.78850663	     16.78850663	     13.48959645	     -5.71720271	     -7.71925895	    -11.11297905	      3.11095360	      0.50840349	     -1.78419377	    -13.93015207	     -5.21347752	     46.79166412	     46.36897486	      0.00000000	      0.00000000	     24.31943096	    -12.76174206	     -0.60437714	     45.95248173	     46.83932434	      0.00000000	      0.00000000
     43.84050000	     -2.96444482	     -2.61757067	     -0.02663650	      1.06884129	      0.93368928	      0.39317426	     34.50528122	     -8.95155013	     -7.79085266	     52.74743251	     52.74743251	     -1.52007799	    -12.77136544	     -0.00841776	      7.48682973	     -3.11144715	    -15.05767821	     16.11720253	     16.11720253	     13.62386594	     -5.44378521	     -8.12191546	    -11.08752401	      3.00013702	      0.14992301	     -1.05151767	    -13.53910764	     -7.75238399	     39.50509158	     46.71467867	      0.00000000	      0.00000000	     24.81610679	    -13.74053354	      0.01671886	     48.88326889	     46.79663014	      0.00000000	      0.00000000
     43.85200000	     -3.03542140	     -2.53041903	     -0.19041727	      1.06855813	      0.93324819	      0.39335030	     34.37922397	     -8.93003996	     -7.89792724	     48.56679919	     48.56679919	     -1.55479609	    -12.34639769	     -0.02238693	      6.55778133	     -2.93328839	    -15.27902336	     15.43455842	     15.43455842	     13.88604260	     -5.09527041	     -8.25940170	    -11.05944325	      2.97233202	      0.45965522	     -2.21834471	    -13.95018366	     -8.92147606	     36.52084800	     46.85164057	      0.00000000	      0.00000000	     25.84540602	    -13.90139438	      0.01753104	     50.95845521	     46.82440973	      0.00000000	      0.00000000
     43.86350000	     -3.03734198	     -2.51988257	     -0.29388241	      1.06832798	      0.93275610	      0.39358027	     33.96553763	     -8.80423704	     -8.18997505	     44.06251220	     44.06251220	     -1.45019060	    -11.64084035	      0.36863232	      5.66281842	     -2.86788377	    -15.42878086	     14.96693897	     14.96693897	     14.20040345	     -4.83793404	     -8.37481626	    -11.14140217	      3.08860832	      0.61209836	     -3.58065517	    -14.52730684	     -9.42899194	     34.74011076	     46.93116743	      0.00000000	      0.00000000	     26.92623045	    -14.08752165	     -0.04971347	     52.42353942	     46.85519770	      0.00000000	      0.00000000
     43.87500000	     -3.16670907	     -2.37755620	     -0.45241101	      1.06827960	      0.93189533	      0.39405923	     33.57455372	     -8.74731874	     -8.53996548	     39.36332286	     39.36332286	     -1.56256405	    -10.63973060	     -0.00464346	      4.78131494	     -2.66919529	    -15.82508931	     14.28543519	     14.28543519	     14.46301345	     -4.24099071	     -8.69076198	    -10.99506366	      2.91229787	      0.67909518	     -4.09452469	    -14.68931839	    -11.30625587	     30.70502383	     47.17545083	      0.00000000	      0.00000000	     27.38421652	    -14.59159342	      0.23825046	     55.53252348	     46.87227920	      0.00000000	      0.00000000
     43.88650000	     -3.30029754	     -2.31271759	     -0.53067024	      1.06828818	      0.93089116	      0.39462183	     32.96562101	     -8.54798850	     -9.05832091	     34.39512767	     34.39512767	     -1.80729399	     -9.40721560	     -0.51371875	      4.04599399	     -2.58296509	    -16.01134393	     13.87553177	     13.87553177	     14.77745620	     -3.88420249	     -8.90491118	    -10.89222127	      2.91747760	      0.23942435	     -3.86583641	    -14.52608013	    -15.85189739	     26.64077773	     47.56424282	      0.00000000	      0.00000000	     27.41823789	    -15.46250043	      0.07320372	     58.65542594	     46.94600604	      0.00000000	      0.00000000
     43.89800000	     -3.42935194	     -2.27979038	     -0.58341663	      1.06848138	      0.92969689	      0.39535479	     32.25935147	     -8.23784300	     -9.65549070	     29.47111950	     29.47111950	     -1.63421216	     -7.65708056	      0.35835982	      3.30389181	     -2.53708418	    -16.14028535	     13.48215068	     13.48215068	     15.15559632	     -3.58691341	     -9.07349765	    -10.72295452	      2.96240048	      0.39478116	     -5.48928434	    -15.03908191	    -16.17580366	     25.81938635	     47.60254394	      0.00000000	      0.00000000	     28.32831731	    -15.54784835	     -0.03282922	     59.89776157	     46.97957452	      0.00000000	      0.00000000
     43.90950000	     -3.47788730	     -2.19148644	     -0.65457417	      1.06899016	      0.92839395	      0.39625814	     31.41879671	     -7.93476264	    -10.37456687	     24.72395978	     24.72395978	     -1.41469664	     -5.42303159	      1.45193535	      2.41410622	     -2.44048758	    -16.36378799	     13.03138843	     13.03138843	     15.54275217	     -3.13416653	     -9.28174178	    -10.64677590	      2.91125879	      0.71211775	     -7.08933763	    -15.47712945	    -16.59693722	     24.94157991	     47.65226521	      0.00000000	      0.00000000	     29.07555196	    -15.58319155	     -0.03420631	     61.67510018	     47.01218097	      0.00000000	      0.00000000
